<?xml version="1.0" encoding="utf-8"?>
<!-- Generator: Adobe Illustrator 23.0.6, SVG Export Plug-In . SVG Version: 6.00 Build 0)  -->
<svg version="1.0" id="Layer_1" xmlns="http://www.w3.org/2000/svg" xmlns:xlink="http://www.w3.org/1999/xlink" x="0px" y="0px"
	 viewBox="0 0 120 20" enable-background="new 0 0 120 20" xml:space="preserve">
<polygon fill="#E0E1E0" points="25.5,10 16.1,19.4 12.8,16 11.4,14.7 6.7,10 11.4,5.3 12.8,6.6 9.4,10 9.4,10 9.4,10 12.1,12.7 
	12.8,13.3 12.8,13.4 14.1,14.7 16.1,16.7 22.8,10 16.1,3.3 14.1,5.3 12.8,4 16.1,0.6 "/>
<polygon fill="#57A0D7" points="16.1,10 12.8,13.4 12.8,13.4 12.8,13.3 12.1,12.7 9.4,10 9.4,10 9.4,10 12.8,6.6 12.8,6.6 12.8,6.6 
	"/>
<polygon fill="#FFFFFF" points="18.8,10 14.1,14.7 12.8,13.4 12.8,13.4 16.1,10 12.8,6.6 12.8,6.6 12.8,6.6 11.4,5.3 9.4,3.3 
	2.7,10 9.4,16.7 11.4,14.7 12.8,16 9.4,19.4 0,10 9.4,0.6 12.8,4 14.1,5.3 "/>
<g>
	<path fill="#FFFFFF" d="M51.8,8.3c0-0.5,0-0.8-0.1-1.1c-0.1-0.3-0.3-0.5-0.5-0.6s-0.5-0.2-0.9-0.3c-0.4,0-0.8,0-1.4,0h-3
		c-0.5,0-0.9,0-1.3,0c-0.4,0-0.6,0.1-0.8,0.2c-0.2,0.1-0.4,0.2-0.5,0.4c-0.1,0.2-0.2,0.4-0.3,0.7c0,0.3-0.1,0.6-0.1,1s0,0.9,0,1.5
		s0,1,0,1.5c0,0.4,0,0.8,0.1,1c0,0.3,0.1,0.5,0.3,0.7c0.1,0.2,0.3,0.3,0.5,0.4c0.2,0.1,0.5,0.1,0.8,0.2c0.4,0,0.8,0,1.3,0h3
		c0.4,0,0.8,0,1.1,0c0.3,0,0.6-0.1,0.8-0.1c0.2-0.1,0.4-0.1,0.5-0.3c0.1-0.1,0.2-0.2,0.3-0.4c0.1-0.2,0.1-0.4,0.2-0.6
		c0-0.2,0-0.5,0-0.8V11h-4.5V10H53v1.5c0,0.4,0,0.7-0.1,1c0,0.3-0.1,0.6-0.3,0.8s-0.3,0.4-0.5,0.6s-0.4,0.3-0.8,0.4
		c-0.3,0.1-0.7,0.2-1.1,0.2c-0.4,0-0.9,0.1-1.5,0.1h-3c-0.7,0-1.3,0-1.7-0.1c-0.5-0.1-0.8-0.2-1.2-0.4c-0.3-0.2-0.5-0.4-0.7-0.6
		c-0.2-0.3-0.3-0.6-0.4-0.9s-0.1-0.7-0.1-1.2s0-0.9,0-1.5s0-1,0-1.5c0-0.4,0-0.8,0.1-1.2C42,7,42.1,6.7,42.2,6.5
		c0.2-0.3,0.4-0.5,0.7-0.6s0.7-0.3,1.2-0.4c0.5-0.1,1.1-0.1,1.7-0.1h3c0.6,0,1.1,0,1.5,0.1c0.4,0,0.8,0.1,1.1,0.2
		c0.3,0.1,0.6,0.2,0.8,0.4c0.2,0.2,0.4,0.4,0.5,0.6c0.1,0.2,0.2,0.5,0.3,0.8S53,8,53,8.3L51.8,8.3L51.8,8.3z"/>
	<path fill="#FFFFFF" d="M54.8,14.5v-9h1.1v8H63v0.9H54.8z"/>
	<path fill="#FFFFFF" d="M75,5.5V10c0,0.5,0,1,0,1.5c0,0.4,0,0.8-0.1,1.2c-0.1,0.4-0.2,0.7-0.4,0.9c-0.2,0.3-0.4,0.5-0.7,0.6
		c-0.3,0.2-0.7,0.3-1.2,0.4c-0.5,0.1-1.1,0.1-1.7,0.1h-2.6c-0.7,0-1.3,0-1.7-0.1c-0.5-0.1-0.8-0.2-1.2-0.4c-0.3-0.2-0.5-0.4-0.7-0.6
		c-0.2-0.3-0.3-0.6-0.4-0.9c-0.1-0.4-0.1-0.7-0.1-1.2c0-0.4,0-0.9,0-1.5V5.5h1.1V10c0,0.6,0,1,0,1.5c0,0.4,0,0.8,0.1,1
		c0,0.3,0.1,0.5,0.3,0.7c0.1,0.2,0.3,0.3,0.5,0.4c0.2,0.1,0.5,0.1,0.8,0.2c0.3,0,0.8,0,1.3,0h2.6c0.5,0,0.9,0,1.2,0
		c0.4,0,0.6-0.1,0.8-0.2c0.2-0.1,0.4-0.2,0.5-0.4c0.1-0.2,0.2-0.4,0.3-0.7c0-0.3,0.1-0.6,0.1-1c0-0.4,0-0.9,0-1.5V5.5H75z"/>
	<path fill="#FFFFFF" d="M76.8,14.5v-9h9v0.9H78v3h7.5v0.9H78v3.2h7.8v0.9H76.8z"/>
	<path fill="#FFFFFF" d="M95.9,12.6v1.9h-1.1v-1.9h-7.8v-1.1l7.5-6h1.5v6.2h1.5v0.9H95.9z M94.8,11.7V6.3l-6.7,5.4H94.8z"/>
	<path fill="#FFFFFF" d="M98.9,13.4c0-0.2,0-0.5,0-0.7c0-0.2,0-0.4,0.1-0.7c0-0.2,0.1-0.4,0.2-0.6c0.1-0.2,0.2-0.4,0.3-0.5
		c0.1-0.1,0.3-0.3,0.5-0.4c0.2-0.1,0.4-0.2,0.8-0.2l6-0.6c0.2,0,0.4,0,0.5-0.1s0.3-0.1,0.4-0.2s0.2-0.3,0.2-0.5
		c0-0.2,0.1-0.5,0.1-0.9c0-0.3,0-0.6-0.1-0.8c0-0.2-0.1-0.4-0.2-0.5c-0.1-0.1-0.3-0.3-0.4-0.3c-0.2-0.1-0.4-0.1-0.7-0.2
		c-0.3,0-0.6,0-1-0.1c-0.4,0-0.8,0-1.3,0c-0.7,0-1.3,0-1.7,0c-0.5,0-0.8,0.1-1.2,0.1c-0.3,0.1-0.5,0.2-0.7,0.3
		c-0.2,0.1-0.3,0.3-0.4,0.4c-0.1,0.2-0.1,0.4-0.1,0.7c0,0.3,0,0.5,0,0.9h-1.1c0-0.6,0-1,0.2-1.4c0.1-0.4,0.3-0.7,0.4-0.9
		c0.2-0.3,0.4-0.4,0.8-0.6s0.6-0.2,1-0.3c0.4-0.1,0.8-0.1,1.3-0.1c0.5,0,1,0,1.6,0s1.1,0,1.5,0c0.4,0,0.9,0,1.2,0.1
		c0.4,0.1,0.7,0.2,0.9,0.3c0.3,0.1,0.5,0.3,0.7,0.5c0.2,0.2,0.3,0.5,0.4,0.8c0.1,0.3,0.1,0.7,0.1,1.1c0,0.4,0,0.7-0.1,1
		s-0.1,0.6-0.3,0.8c-0.1,0.2-0.3,0.4-0.6,0.5c-0.2,0.1-0.5,0.2-0.9,0.3l-6,0.6c-0.3,0-0.5,0.1-0.7,0.2c-0.1,0.1-0.3,0.2-0.3,0.4
		c-0.1,0.2-0.1,0.4-0.1,0.7c0,0.3,0,0.6,0,1.1h8.8v0.9h-9.9L98.9,13.4L98.9,13.4z"/>
</g>
</svg>
