<?xml version="1.0" encoding="utf-8"?>
<!-- Generator: Adobe Illustrator 23.1.0, SVG Export Plug-In . SVG Version: 6.00 Build 0)  -->
<svg version="1.1" id="Layer_1" xmlns="http://www.w3.org/2000/svg" xmlns:xlink="http://www.w3.org/1999/xlink" x="0px" y="0px"
	 viewBox="0 0 120 20" style="enable-background:new 0 0 120 20;" xml:space="preserve">
<style type="text/css">
	.st0{fill:#757575;}
	.st1{fill:#64B5F6;}
	.st2{fill:#424242;}
</style>
<polygon class="st0" points="25.7,10 16.3,19.4 12.9,16 11.6,14.7 6.9,10 11.6,5.3 12.9,6.6 9.6,10 9.6,10 9.6,10 12.2,12.7 
	12.9,13.3 12.9,13.3 14.2,14.7 16.3,16.7 23,10 16.3,3.3 14.2,5.3 12.9,4 16.3,0.6 "/>
<polygon class="st1" points="16.3,10 12.9,13.4 12.9,13.3 12.9,13.3 12.2,12.7 9.6,10 9.6,10 9.6,10 12.9,6.6 12.9,6.7 12.9,6.6 "/>
<polygon class="st2" points="18.9,10 14.2,14.7 12.9,13.3 12.9,13.4 16.3,10 12.9,6.6 12.9,6.7 12.9,6.6 11.6,5.3 9.5,3.3 2.8,10 
	9.5,16.7 11.6,14.7 12.9,16 9.5,19.4 0.2,10 9.5,0.6 12.9,4 14.2,5.3 "/>
<g>
	<path class="st2" d="M51.9,8.3c0-0.5,0-0.9-0.1-1.1c-0.1-0.3-0.3-0.5-0.5-0.6c-0.2-0.1-0.5-0.2-0.9-0.3c-0.4,0-0.9,0-1.4,0h-3
		c-0.5,0-0.9,0-1.3,0c-0.4,0-0.6,0.1-0.9,0.2c-0.2,0.1-0.4,0.2-0.5,0.4C43.1,7.1,43,7.3,43,7.6c0,0.3-0.1,0.6-0.1,1
		c0,0.4,0,0.9,0,1.5s0,1,0,1.5c0,0.4,0,0.8,0.1,1c0,0.3,0.1,0.5,0.3,0.7c0.1,0.2,0.3,0.3,0.5,0.4c0.2,0.1,0.5,0.1,0.9,0.2
		c0.4,0,0.8,0,1.3,0h3c0.4,0,0.8,0,1.1,0c0.3,0,0.6-0.1,0.8-0.1c0.2-0.1,0.4-0.1,0.5-0.3c0.1-0.1,0.2-0.2,0.3-0.4
		c0.1-0.2,0.1-0.4,0.2-0.6c0-0.2,0-0.5,0-0.8V11h-4.5V10H53v1.5c0,0.4,0,0.7-0.1,1c0,0.3-0.1,0.6-0.3,0.8c-0.1,0.2-0.3,0.4-0.5,0.6
		s-0.4,0.3-0.8,0.4c-0.3,0.1-0.7,0.2-1.1,0.2c-0.4,0-0.9,0.1-1.5,0.1h-3c-0.7,0-1.3,0-1.7-0.1c-0.5-0.1-0.9-0.2-1.2-0.4
		c-0.3-0.2-0.5-0.4-0.7-0.6c-0.2-0.3-0.3-0.6-0.4-0.9c-0.1-0.4-0.1-0.7-0.1-1.2s0-0.9,0-1.5c0-0.5,0-1,0-1.5c0-0.4,0-0.8,0.1-1.2
		C42,7,42.1,6.7,42.3,6.5C42.4,6.2,42.7,6,43,5.8s0.7-0.3,1.2-0.4c0.5-0.1,1.1-0.1,1.7-0.1h3c0.6,0,1.1,0,1.5,0.1
		c0.4,0,0.8,0.1,1.1,0.2C51.8,5.7,52,5.9,52.2,6c0.2,0.2,0.4,0.4,0.5,0.6c0.1,0.2,0.2,0.5,0.3,0.8S53,8,53,8.3L51.9,8.3L51.9,8.3z"
		/>
	<path class="st2" d="M54.9,14.5v-9H56v8.1h7.1v0.9H54.9z"/>
	<path class="st2" d="M75.2,5.5V10c0,0.5,0,1,0,1.5c0,0.4,0,0.8-0.1,1.2c-0.1,0.4-0.2,0.7-0.4,0.9c-0.2,0.3-0.4,0.5-0.7,0.6
		c-0.3,0.2-0.7,0.3-1.2,0.4c-0.5,0.1-1.1,0.1-1.7,0.1h-2.6c-0.7,0-1.3,0-1.7-0.1c-0.5-0.1-0.9-0.2-1.2-0.4c-0.3-0.2-0.5-0.4-0.7-0.6
		c-0.2-0.3-0.3-0.6-0.4-0.9c-0.1-0.4-0.1-0.7-0.1-1.2s0-0.9,0-1.5V5.5h1.1V10c0,0.6,0,1,0,1.5c0,0.4,0,0.8,0.1,1
		c0,0.3,0.1,0.5,0.3,0.7c0.1,0.2,0.3,0.3,0.5,0.4c0.2,0.1,0.5,0.1,0.9,0.2c0.3,0,0.8,0,1.3,0H71c0.5,0,0.9,0,1.3,0
		c0.4,0,0.6-0.1,0.9-0.2c0.2-0.1,0.4-0.2,0.5-0.4c0.1-0.2,0.2-0.4,0.3-0.7c0-0.3,0.1-0.6,0.1-1s0-0.9,0-1.5V5.5H75.2z"/>
	<path class="st2" d="M77,14.5v-9h9v0.9h-7.9v3h7.5v0.9h-7.5v3.2H86v0.9H77z"/>
	<path class="st2" d="M96.2,12.6v1.9h-1.1v-1.9h-7.9v-1.1l7.5-6h1.5v6.2h1.5v0.9H96.2z M95.1,11.7V6.3l-6.7,5.4H95.1z"/>
	<path class="st2" d="M99.2,13.4c0-0.2,0-0.5,0-0.7c0-0.2,0-0.4,0.1-0.7c0-0.2,0.1-0.4,0.2-0.6c0.1-0.2,0.2-0.4,0.3-0.5
		c0.1-0.1,0.3-0.3,0.5-0.4c0.2-0.1,0.4-0.2,0.8-0.2l6-0.6c0.2,0,0.4,0,0.5-0.1c0.1,0,0.3-0.1,0.4-0.2c0.1-0.1,0.2-0.3,0.2-0.5
		c0-0.2,0.1-0.5,0.1-0.9c0-0.3,0-0.6-0.1-0.8c0-0.2-0.1-0.4-0.2-0.5c-0.1-0.1-0.3-0.3-0.4-0.3c-0.2-0.1-0.4-0.1-0.7-0.2
		c-0.3,0-0.6,0-1-0.1c-0.4,0-0.8,0-1.3,0c-0.7,0-1.3,0-1.7,0c-0.5,0-0.9,0.1-1.2,0.1c-0.3,0.1-0.5,0.2-0.7,0.3
		c-0.2,0.1-0.3,0.3-0.4,0.4c-0.1,0.2-0.1,0.4-0.1,0.7c0,0.3,0,0.5,0,0.9h-1.1c0-0.6,0-1,0.2-1.4c0.1-0.4,0.3-0.7,0.4-0.9
		c0.2-0.3,0.4-0.4,0.8-0.6c0.3-0.1,0.6-0.2,1-0.3c0.4-0.1,0.8-0.1,1.3-0.1c0.5,0,1,0,1.6,0c0.6,0,1.1,0,1.5,0c0.4,0,0.9,0,1.2,0.1
		c0.4,0.1,0.7,0.2,0.9,0.3c0.3,0.1,0.5,0.3,0.7,0.5c0.2,0.2,0.3,0.5,0.4,0.8c0.1,0.3,0.1,0.7,0.1,1.1c0,0.4,0,0.7-0.1,1
		s-0.1,0.6-0.3,0.8c-0.1,0.2-0.3,0.4-0.6,0.5c-0.2,0.1-0.5,0.2-0.9,0.3l-6,0.6c-0.3,0-0.5,0.1-0.7,0.2c-0.1,0.1-0.3,0.2-0.3,0.4
		c-0.1,0.2-0.1,0.4-0.1,0.7c0,0.3,0,0.6,0,1.1h8.8v0.9h-10L99.2,13.4L99.2,13.4z"/>
</g>
</svg>
