<?xml version="1.0" encoding="utf-8"?>
<!-- Generator: Adobe Illustrator 26.1.0, SVG Export Plug-In . SVG Version: 6.00 Build 0)  -->
<svg version="1.1" id="Layer_1" xmlns="http://www.w3.org/2000/svg" xmlns:xlink="http://www.w3.org/1999/xlink" x="0px" y="0px"
	 width="120px" height="20px" viewBox="0 0 120 20" style="enable-background:new 0 0 120 20;" xml:space="preserve">
<style type="text/css">
	.st0{fill:#606369;}
	.st1{fill:#1C89EA;}
</style>
<g>
	<path class="st0" d="M25.3,9.1l-7.6-7.6c-0.2-0.2-0.5-0.3-0.8-0.3c-0.3,0-0.6,0.1-0.9,0.3L14.5,3c-0.1,0.1-0.1,0.3,0,0.4
		c0,0,0,0,0,0l1,1.1c0.1,0.1,0.3,0.1,0.4,0l0.6-0.6c0.1-0.1,0.3-0.1,0.4,0c0,0,0,0,0,0L23,9.8c0.1,0.1,0.1,0.3,0,0.4c0,0,0,0,0,0
		l-5.9,5.9c-0.1,0.1-0.3,0.1-0.4,0c0,0,0,0,0,0l-5.9-5.9c-0.1-0.1-0.1-0.3,0-0.4c0,0,0,0,0,0l0.6-0.6c0.1-0.1,0.1-0.3,0-0.4l-1.1-1
		c-0.1-0.1-0.3-0.1-0.4,0c0,0,0,0,0,0L8.4,9.1c-0.5,0.5-0.5,1.2,0,1.7l7.6,7.6c0.2,0.2,0.5,0.4,0.9,0.4c0.3,0,0.6-0.1,0.8-0.4
		l7.6-7.6C25.8,10.4,25.8,9.6,25.3,9.1C25.4,9.2,25.3,9.2,25.3,9.1z"/>
	<path class="st1" d="M0.6,10.8l7.6,7.6c0.2,0.2,0.5,0.4,0.9,0.4c0.3,0,0.6-0.1,0.8-0.4l1.5-1.5c0.1-0.1,0.1-0.3,0-0.4l-1.1-1
		c-0.1-0.1-0.3-0.1-0.4,0c0,0,0,0,0,0l-0.6,0.6c-0.1,0.1-0.3,0.1-0.4,0c0,0,0,0,0,0l-5.9-5.9c-0.1-0.1-0.1-0.3,0-0.4c0,0,0,0,0,0
		l5.9-5.9c0.1-0.1,0.3-0.1,0.4,0c0,0,0,0,0,0l5.9,5.9c0.1,0.1,0.1,0.3,0,0.4c0,0,0,0,0,0l-0.6,0.6c-0.1,0.1-0.1,0.3,0,0.4
		c0,0,0,0,0,0l1,1.1c0.1,0.1,0.3,0.1,0.4,0l1.4-1.5c0.5-0.5,0.5-1.2,0-1.7c0,0,0,0,0,0L9.9,1.5C9.7,1.3,9.3,1.2,9,1.2
		c-0.3,0-0.6,0.1-0.9,0.3L0.6,9.1C0.1,9.6,0.1,10.4,0.6,10.8z"/>
</g>
<g>
	<path class="st0" d="M41.6,9.9c0-3.9,2.7-6.5,6.1-6.5s5.6,2,5.8,5.2l-1.7,0.1c-0.1-2.3-1.6-3.8-4.1-3.8s-4.4,2-4.4,5.1s1.8,5,4.5,5
		c2.4,0,3.9-1.5,4.1-3.6h-3.8V10h5.4v6.2H52V14c-0.6,1.6-2.3,2.5-4.3,2.5C44.2,16.5,41.6,13.8,41.6,9.9z"/>
	<path class="st0" d="M57.4,3.7v12.5h-1.6V3.7H57.4z"/>
	<path class="st0" d="M65.5,7.5h1.7v8.7h-1.7v-1.5c-0.4,1-1.5,1.8-2.8,1.8c-2.3,0-3.1-1.5-3.1-3.5V7.5h1.7v5.2c0,1.5,0.6,2.4,2,2.4
		s2.3-1,2.3-2.6V7.5z"/>
	<path class="st0" d="M77.4,13.3c-0.4,2-1.9,3.2-4.1,3.2c-2.6,0-4.5-1.7-4.5-4.5s1.9-4.7,4.4-4.7c2.8,0,4.2,2,4.2,4.3v0.7h-6.9
		c0.1,1.7,1.3,2.9,2.8,2.9c1.5,0,2.3-0.7,2.7-2L77.4,13.3z M75.8,11.2c-0.1-1.4-0.8-2.7-2.5-2.7s-2.5,1.2-2.7,2.7H75.8z"/>
	<path class="st0" d="M87.7,11.5h2.2v1.4h-2.2v3.3H86v-3.3h-6.6v-1.6l6.2-7.6h2.1V11.5z M80.9,11.5H86V5.2L80.9,11.5z"/>
	<path class="st0" d="M99.6,14.7v1.5h-9.2v-1l3.5-3c2-1.7,3.4-3,3.4-4.8c0-1.5-0.8-2.5-2.5-2.5S92.2,6,92.2,7.8c0,0.4,0,0.8,0.1,1.1
		l-1.7-0.1c-0.1-0.4-0.1-0.8-0.1-1.2c0-2.6,1.7-4.2,4.4-4.2c2.9,0,4.3,1.7,4.3,3.8s-1.9,4-3.7,5.5l-2.4,2H99.6z"/>
</g>
</svg>
