<svg xmlns="http://www.w3.org/2000/svg" xmlns:xlink="http://www.w3.org/1999/xlink" x="0px" y="0px" width="87" height="12" viewBox="0 0 87 12">
	<style type="text/css">
		.accent{fill:#007be5;}
		.base{fill:#083044;}
	</style>
	<path class="base" fill-rule="evenodd" clip-rule="evenodd" d="M9.26096 2.99643H7.41826C6.22038 2.99643 5.22779 3.36052 4.53949 4.12006C3.85119 4.87719 3.48169 6.00566 3.48169 7.49821C3.48169 8.99077 3.85119 10.1216 4.53949 10.8764C5.2302 11.6359 6.22038 12 7.41826 12H9.26096C10.4516 12 11.4418 11.6359 12.1349 10.8764C12.8256 10.1192 13.1999 8.99077 13.1999 7.4958C13.1999 6.00083 12.8256 4.87237 12.1349 4.11524C11.4442 3.3557 10.4516 2.9916 9.26096 2.9916V2.99643ZM7.5849 4.95435H9.09674C9.82851 4.95435 10.3308 5.14725 10.6545 5.53787C10.9829 5.93573 11.152 6.56747 11.152 7.50063C11.152 8.43378 10.9829 9.0607 10.6545 9.45373C10.3308 9.84194 9.82851 10.03 9.09674 10.03H7.5849C6.84347 10.03 6.34114 9.84194 6.01993 9.45373C5.6939 9.0607 5.52726 8.43378 5.52726 7.50063C5.52726 6.56747 5.69148 5.93573 6.01993 5.53787C6.34114 5.14725 6.84347 4.95435 7.5849 4.95435Z" />
	<path class="base" d="M0 3.19601C0 3.08312 0.091457 2.9916 0.204275 2.9916H1.82388C1.9367 2.9916 2.02816 3.08312 2.02816 3.19601V11.7956C2.02816 11.9085 1.9367 12 1.82388 12H0.204275C0.0914571 12 0 11.9085 0 11.7956V3.19601Z" />
	<path class="accent" d="M0 0.189295C0 0.08475 0.0844686 0 0.188666 0H1.83949C1.94369 0 2.02816 0.0847502 2.02816 0.189295L2.02816 1.83886C2.02816 1.94341 1.94369 2.02816 1.83949 2.02816H0.188666C0.0844688 2.02816 2.0081e-07 1.94341 2.0081e-07 1.83886L0 0.189295Z" />
	<path class="accent" d="M13.9774 10.1611C13.9774 10.0566 14.0619 9.97183 14.1661 9.97183H15.8169C15.9211 9.97183 16.0055 10.0566 16.0055 10.1611L16.0055 11.8107C16.0055 11.9152 15.9211 12 15.8169 12H14.1661C14.0619 12 13.9774 11.9152 13.9774 11.8107L13.9774 10.1611Z" />
	<path class="base" d="M74.8177 4.94401C74.0785 4.94401 73.5787 5.13617 73.2577 5.52802C72.9315 5.92639 72.7666 6.55845 72.7666 7.49205C72.7666 8.42574 72.9315 9.05327 73.2573 9.44731C73.578 9.83505 74.0777 10.0235 74.8177 10.0235H79.0559C79.1866 10.0235 79.2925 10.1295 79.2925 10.2601V11.7634C79.2925 11.894 79.1866 12 79.0559 12H74.6521C73.4564 12 72.4677 11.6345 71.7796 10.8748C71.0934 10.1171 70.7239 8.98679 70.7239 7.49205C70.7239 5.99731 71.0934 4.867 71.7796 4.10933C72.4677 3.34964 73.4564 2.98413 74.6521 2.98413H79.0559C79.1866 2.98413 79.2925 3.09007 79.2925 3.22075V4.70739C79.2925 4.83807 79.1866 4.94401 79.0559 4.94401H74.8177Z" />
	<path class="base" d="M22.0038 2.77424C20.9482 2.77424 20.2199 3.03779 19.7504 3.58618C19.2766 4.13963 19.0417 5.01085 19.0417 6.28295C19.0417 7.54709 19.2726 8.41401 19.7442 8.96526C20.2115 9.51139 20.9396 9.7751 22.0038 9.7751H26.2254C26.3561 9.7751 26.4621 9.88104 26.4621 10.0117V11.7634C26.4621 11.8941 26.3561 12 26.2254 12H22.0038C20.3472 12 19.043 11.5326 18.1549 10.5693C17.2686 9.60778 16.8168 8.17402 16.8168 6.28295C16.8168 4.38344 17.2728 2.94561 18.1611 1.98215C19.0512 1.01679 20.3553 0.549348 22.0038 0.549348H26.2254C26.3561 0.549348 26.4621 0.655286 26.4621 0.785967V2.53762C26.4621 2.6683 26.3561 2.77424 26.2254 2.77424H22.0038Z" />
	<path class="base" fill-rule="evenodd" clip-rule="evenodd" d="M33.1415 2.98416H31.3029C30.1072 2.98416 29.1185 3.34967 28.4304 4.10936C27.7442 4.86703 27.3747 5.99734 27.3747 7.49208C27.3747 8.98682 27.7442 10.1171 28.4304 10.8748C29.1185 11.6345 30.1072 12 31.3029 12H33.1415C34.3291 12 35.3176 11.6344 36.0076 10.875C36.6959 10.1174 37.0697 8.9872 37.0697 7.49208C37.0697 5.99696 36.6959 4.86672 36.0076 4.1092C35.3176 3.34979 34.3291 2.98416 33.1415 2.98416ZM31.4686 4.94404H32.9758C33.7063 4.94404 34.2066 5.13598 34.5299 5.52834C34.8582 5.92692 35.027 6.55913 35.027 7.49208C35.027 8.42511 34.8582 9.0528 34.5303 9.44704C34.2073 9.8353 33.7071 10.0236 32.9758 10.0236H31.4686C30.7285 10.0236 30.2288 9.83508 29.9081 9.44734C29.5823 9.0533 29.4174 8.42577 29.4174 7.49208C29.4174 6.55848 29.5823 5.92642 29.9086 5.52805C30.2295 5.1362 30.7294 4.94404 31.4686 4.94404Z" />
	<path class="base" d="M45.9594 6.94549C45.9594 6.28463 45.7693 5.79403 45.38 5.46488C44.9861 5.13191 44.3651 4.94404 43.4611 4.94404H40.5956C40.5471 4.94404 40.5368 4.95642 40.5352 4.95839L40.5351 4.95851C40.5299 4.96461 40.5155 4.98861 40.5155 5.05728V11.7634C40.5155 11.8941 40.4096 12 40.2789 12H38.726C38.5953 12 38.4894 11.8941 38.4894 11.7634V4.47756C38.4894 3.95584 38.5762 3.57149 38.8093 3.32122C39.0451 3.068 39.3999 2.98416 39.8503 2.98416H43.4611C44.9628 2.98416 46.1016 3.34057 46.866 4.02485C47.6329 4.71136 48.0021 5.70909 48.0021 6.94549V11.7634C48.0021 11.8941 47.8962 12 47.7655 12H46.196C46.0654 12 45.9594 11.8941 45.9594 11.7634V6.94549Z" />
	<path class="base" d="M56.9257 6.94549C56.9257 6.28463 56.7356 5.79403 56.3463 5.46488C55.9524 5.13191 55.3314 4.94404 54.4273 4.94404H51.5619C51.5134 4.94404 51.5031 4.95642 51.5014 4.95839L51.5013 4.95851C51.4961 4.96461 51.4818 4.98861 51.4818 5.05728V11.7634C51.4818 11.8941 51.3758 12 51.2451 12H49.6922C49.5616 12 49.4556 11.8941 49.4556 11.7634V4.47756C49.4556 3.95584 49.5424 3.57149 49.7755 3.32122C50.0114 3.068 50.3662 2.98416 50.8165 2.98416H54.4273C55.929 2.98416 57.0678 3.34057 57.8322 4.02485C58.5991 4.71136 58.9684 5.70909 58.9684 6.94549V11.7634C58.9684 11.8941 58.8624 12 58.7317 12H57.1623C57.0316 12 56.9257 11.8941 56.9257 11.7634V6.94549Z" />
	<path class="base" d="M84.0827 4.94401C83.952 4.94401 83.8461 5.04995 83.8461 5.18063V8.94963C83.8461 9.42842 83.9326 9.71177 84.0874 9.8783C84.2395 10.042 84.4861 10.1229 84.8869 10.1229H85.9946C86.1253 10.1229 86.2312 10.2289 86.2312 10.3595V11.7634C86.2312 11.894 86.1253 12 85.9946 12H84.5225C83.6061 12 82.9117 11.8157 82.4529 11.305C81.9981 10.7986 81.8034 10.0018 81.8034 8.85025V5.18063C81.8034 5.04995 81.6975 4.94401 81.5668 4.94401H80.8475C80.7168 4.94401 80.6109 4.83808 80.6109 4.7074V3.22076C80.6109 3.09007 80.7168 2.98414 80.8475 2.98414H81.5668C81.6975 2.98414 81.8034 2.8782 81.8034 2.74752V1.15034C81.8034 1.01966 81.9094 0.913725 82.04 0.913725H83.6095C83.7402 0.913725 83.8461 1.01966 83.8461 1.15034V2.74752C83.8461 2.8782 83.952 2.98414 84.0827 2.98414H86.0277C86.1584 2.98414 86.2643 3.09007 86.2643 3.22076V4.7074C86.2643 4.83808 86.1584 4.94401 86.0277 4.94401H84.0827Z" />
	<path class="base" fill-rule="evenodd" clip-rule="evenodd" d="M69.0848 10.2602C69.0848 10.1295 68.9789 10.0235 68.8482 10.0235H63.5996C63.1426 10.0235 62.8465 9.90173 62.6642 9.71944C62.4817 9.53695 62.3932 9.27375 62.3932 8.94962V8.69205C62.3932 8.56136 62.4992 8.45543 62.6299 8.45543H66.4154C67.5075 8.45543 68.2884 8.22496 68.7962 7.764C69.3068 7.30039 69.5154 6.62733 69.5154 5.8026C69.5154 4.93567 69.2899 4.22366 68.7762 3.72993C68.2635 3.23718 67.4867 2.98413 66.432 2.98413H63.5996C62.4814 2.98413 61.6794 3.29815 61.158 3.84602C60.6379 4.39256 60.4168 5.15128 60.4168 6.00135V8.98275C60.4168 9.83282 60.6379 10.5915 61.158 11.1381C61.6793 11.6859 62.4814 12 63.5996 12H68.8482C68.9789 12 69.0848 11.894 69.0848 11.7634V10.2602ZM66.3657 6.81025H62.6299C62.4992 6.81025 62.3932 6.70431 62.3932 6.57363V6.01792C62.3932 5.70275 62.4813 5.43891 62.6647 5.25385C62.8474 5.0693 63.1438 4.94401 63.5996 4.94401H66.4154C66.8251 4.94401 67.0975 5.04638 67.267 5.20551C67.4352 5.36344 67.5224 5.59642 67.5224 5.90197C67.5224 6.20116 67.4425 6.41845 67.2765 6.56439C67.1067 6.71359 66.8223 6.81025 66.3657 6.81025Z" />
</svg>
