<svg xmlns="http://www.w3.org/2000/svg" xmlns:xlink="http://www.w3.org/1999/xlink" x="0px" y="0px" width="626" height="136" viewBox="0 0 626 136">
	<path fill="var(--logo-color-base)" fill-rule="evenodd" clip-rule="evenodd" d="M591.656 26.1253H575.589C565.145 26.1253 556.49 29.2999 550.489 35.9224C544.488 42.5239 541.266 52.363 541.266 65.3767C541.266 78.3904 544.488 88.2505 550.489 94.8309C556.511 101.453 565.145 104.628 575.589 104.628H591.656C602.037 104.628 610.67 101.453 616.714 94.8309C622.736 88.2295 626 78.3904 626 65.3556C626 52.3209 622.736 42.4818 616.714 35.8803C610.691 29.2579 602.037 26.0833 591.656 26.0833V26.1253ZM577.042 43.1966H590.224C596.604 43.1966 600.984 44.8785 603.806 48.2844C606.67 51.7533 608.144 57.2615 608.144 65.3977C608.144 73.5339 606.67 79.0001 603.806 82.4269C600.984 85.8118 596.604 87.4516 590.224 87.4516H577.042C570.578 87.4516 566.198 85.8118 563.397 82.4269C560.554 79.0001 559.101 73.5339 559.101 65.3977C559.101 57.2615 560.533 51.7533 563.397 48.2844C566.198 44.8785 570.578 43.1966 577.042 43.1966Z" />
	<path fill="var(--logo-color-base)" d="M510.909 27.8655C510.909 26.8812 511.707 26.0833 512.69 26.0833H526.812C527.795 26.0833 528.593 26.8812 528.593 27.8655V102.846C528.593 103.83 527.795 104.628 526.812 104.628H512.69C511.707 104.628 510.909 103.83 510.909 102.846V27.8655Z" />
	<path fill="var(--logo-color-base)" fill-rule="evenodd" clip-rule="evenodd" d="M441.092 26.0833H425.383C415.949 26.0833 408.558 28.8362 403.546 34.5522C398.556 40.2682 396.113 48.7372 396.113 59.8329V133.451C396.113 134.459 396.934 135.28 397.945 135.28H411.99C413.001 135.28 413.801 134.459 413.801 133.451V106.701C413.801 105.698 414.106 105.373 414.363 105.117C414.733 104.747 415.097 104.608 415.907 104.608H441.071C451.452 104.608 460.065 101.4 466.045 94.7804C472.025 88.1818 475.247 78.3469 475.247 65.3388C475.247 52.3307 472.025 42.4748 466.045 35.8972C460.044 29.2775 451.452 26.1043 441.071 26.1043L441.092 26.0833ZM413.822 85.5413V60.5685C413.822 54.0959 415.002 49.8089 417.465 47.14C419.887 44.4922 423.804 43.1472 429.889 43.1472H439.513C445.977 43.1472 450.357 44.8284 453.158 48.2328C456.001 51.7002 457.454 57.2061 457.454 65.3388C457.454 73.4715 456.022 78.9353 453.158 82.3607C450.357 85.7441 445.977 87.3833 439.513 87.3833H415.718C414.684 87.3833 413.822 86.6975 413.822 85.5413Z" />
	<path fill="var(--logo-color-base)" fill-rule="evenodd" clip-rule="evenodd" d="M351.808 26.1253H335.769C325.343 26.1253 316.704 29.2999 310.713 35.9224C304.722 42.5239 301.506 52.363 301.506 65.3767C301.506 78.3904 304.722 88.2505 310.713 94.8309C316.725 101.453 325.343 104.628 335.769 104.628H351.808C362.171 104.628 370.789 101.453 376.822 94.8309C382.834 88.2295 386.092 78.3904 386.092 65.3556C386.092 52.3209 382.834 42.4818 376.822 35.8803C370.81 29.2579 362.171 26.0833 351.808 26.0833V26.1253ZM337.22 43.1966H350.378C356.748 43.1966 361.12 44.8785 363.937 48.2844C366.795 51.7533 368.267 57.2615 368.267 65.3977C368.267 73.5339 366.795 79.0001 363.937 82.4269C361.12 85.8118 356.748 87.4516 350.378 87.4516H337.22C330.766 87.4516 326.394 85.8118 323.598 82.4269C320.761 79.0001 319.31 73.5339 319.31 65.3977C319.31 57.2615 320.739 51.7533 323.598 48.2844C326.394 44.8785 330.766 43.1966 337.22 43.1966Z" />
	<path fill="var(--logo-color-base)" fill-rule="evenodd" clip-rule="evenodd" d="M304.478 29.1652C305.658 28.0318 304.86 26.0833 303.259 26.0833H276.956C269.273 26.0833 263.695 27.849 260.096 31.8428C256.518 35.8156 255.086 41.7222 255.086 49.4786V102.846C255.086 103.864 255.914 104.628 256.869 104.628H271.001C272.019 104.628 272.788 103.801 272.788 102.846V51.7909C272.788 48.6378 273.525 46.5358 274.809 45.2326C276.114 43.9293 278.198 43.1726 281.44 43.1726L293.537 43.3326C294.148 43.3326 294.779 42.9737 294.969 42.4287C295.414 41.0711 297.154 37.4041 298.798 35.1721C300.442 32.9401 301.372 31.7732 304.478 29.1652Z" />
	<path fill="var(--logo-color-base)" fill-rule="evenodd" clip-rule="evenodd" d="M217.572 26.1043H192.835C183.074 26.1043 176.069 28.8374 171.526 33.6098C166.982 38.3612 165.047 44.9836 165.047 52.384V78.3483C165.047 85.7487 166.982 92.3712 171.526 97.1225C176.069 101.895 183.074 104.628 192.835 104.628C192.835 104.628 237.752 104.628 238.902 104.628C240.051 104.628 240.732 103.808 240.732 102.799V89.2386C240.732 88.2295 239.911 87.4096 238.902 87.4096H192.707C188.711 87.4096 186.123 86.3584 184.525 84.7606C182.926 83.1628 182.148 80.8712 182.148 78.054V75.5522C182.148 74.7322 182.8 73.7441 183.999 73.7441H217.404C226.933 73.7441 233.748 71.7469 238.186 67.7313C242.646 63.6948 244.476 57.8291 244.476 50.639C244.476 43.0915 242.499 36.8895 238.018 32.5796C233.538 28.2908 226.764 26.0833 217.551 26.0833L217.572 26.1043ZM182.001 57.8291V52.5312C182.001 49.735 182.78 47.3593 184.463 45.6564C186.124 43.9745 188.796 42.8602 192.835 42.8602H217.425C221.043 42.8602 223.504 43.7643 225.06 45.2149C226.596 46.6655 227.395 48.7889 227.395 51.501C227.395 54.2131 226.68 56.1472 225.145 57.4928C223.588 58.8593 221.022 59.7003 216.983 59.7003H183.937C182.864 59.7003 182.001 58.9434 182.001 57.7871V57.8291Z" />
	<path fill="var(--logo-color-base)" fill-rule="evenodd" clip-rule="evenodd" d="M104.775 27.7919C104.775 26.7781 105.601 26.0093 106.556 26.0093H116.944C117.87 26.0093 118.669 25.4202 118.837 24.4944C118.837 24.3892 118.858 24.2841 118.858 24.1789V12.1233C118.858 12.1233 118.858 12.0181 118.858 11.976V9.78792C118.858 8.77802 119.678 7.95749 120.688 7.95749H134.862C135.871 7.95749 136.691 8.77802 136.691 9.78792V24.1999C136.691 25.1887 137.385 26.0303 138.521 26.0303H155.997C157.006 26.0303 157.826 26.7851 157.826 27.795V40.7555C157.826 41.7654 157.006 42.586 155.997 42.586H138.521C137.49 42.586 136.691 43.3855 136.691 44.4164V78.0341C136.691 82.1999 137.448 84.6826 138.794 86.1343C140.119 87.565 142.285 88.2593 145.776 88.2593H155.974C156.983 88.2593 157.803 89.0798 157.803 90.0897V102.798C157.803 103.807 156.983 104.628 155.974 104.628H142.601C134.609 104.628 128.553 103.029 124.536 98.5686C120.561 94.1503 118.858 87.2073 118.858 77.1715V57.2263C118.858 48.4238 116.02 35.4992 105.72 29.3692C105.067 28.9806 104.775 28.3641 104.775 27.7919Z" />
	<path fill="var(--logo-color-base)" d="M66.5261 26.0833C56.3063 26.0833 41.6437 26.0833 41.6437 26.0833C37.713 26.0833 34.623 26.819 32.5631 29.0261C30.5242 31.2122 29.7674 34.5544 29.7674 39.0947V102.846C29.7674 103.855 30.5385 104.628 31.5474 104.628H45.66C46.7259 104.628 47.4746 103.911 47.4746 102.846V45.465C47.4746 44.6872 47.7578 44.05 48.0757 43.7317C48.3935 43.4135 48.7749 43.1726 49.8556 43.1726H66.7653C86.9806 43.1726 88.8426 53.4694 88.8426 59.7708C88.8426 66.0722 88.8426 102.846 88.8426 102.846C88.8426 103.855 89.6137 104.628 90.6226 104.628H104.997C106.006 104.628 106.826 103.808 106.826 102.799V63.9081C106.826 60.5983 107.514 45.8314 98.6139 36.9203C89.0784 27.3727 76.7458 26.0833 66.5261 26.0833Z" />
	<path fill="var(--logo-color-base)" d="M0 27.8655C0 26.8812 0.797418 26.0833 1.78108 26.0833H15.9025C16.8862 26.0833 17.6836 26.8812 17.6836 27.8655V102.846C17.6836 103.83 16.8862 104.628 15.9025 104.628H1.78108C0.797419 104.628 0 103.83 0 102.846V27.8655Z" />
	<path fill="var(--logo-color-accent)" d="M510.909 1.65047C510.909 0.738939 511.646 0 512.554 0H526.948C527.856 0 528.593 0.738941 528.593 1.65047L528.593 16.0331C528.593 16.9447 527.856 17.6836 526.948 17.6836H512.554C511.646 17.6836 510.909 16.9447 510.909 16.0331L510.909 1.65047Z" />
	<path fill="var(--logo-color-accent)" d="M0 1.65047C0 0.738939 0.736486 0 1.64499 0H16.0386C16.9471 0 17.6836 0.738941 17.6836 1.65047L17.6836 16.0331C17.6836 16.9447 16.9471 17.6836 16.0386 17.6836H1.64499C0.736488 17.6836 1.75087e-06 16.9447 1.75087e-06 16.0331L0 1.65047Z" />
	<path fill="var(--logo-color-accent)" d="M480.552 88.5949C480.552 87.6834 481.289 86.9445 482.197 86.9445H496.591C497.499 86.9445 498.236 87.6834 498.236 88.5949L498.236 102.978C498.236 103.889 497.499 104.628 496.591 104.628H482.197C481.289 104.628 480.552 103.889 480.552 102.978L480.552 88.5949Z" />
</svg>
