<?xml version="1.0" encoding="utf-8"?>
<!-- Generator: Adobe Illustrator 26.2.1, SVG Export Plug-In . SVG Version: 6.00 Build 0)  -->
<svg version="1.1" id="Layer_1" xmlns="http://www.w3.org/2000/svg" xmlns:xlink="http://www.w3.org/1999/xlink" x="0px" y="0px"
	 viewBox="0 0 120 20" style="enable-background:new 0 0 120 20;" xml:space="preserve">
<style type="text/css">
	.st0{fill:#606369;}
	.st1{fill:#1C89EA;}
</style>
<g>
	<path class="st0" d="M28.5,9l-8.6-8.6C19.6,0.1,19.3,0,18.9,0s-0.7,0.1-1,0.3L16.2,2c-0.1,0.1-0.1,0.3,0,0.5l0,0l1.1,1.2
		c0.1,0.1,0.3,0.1,0.5,0l0.7-0.7c0.1-0.1,0.3-0.1,0.5,0l0,0l6.9,6.7c0.1,0.1,0.1,0.3,0,0.5l0,0l-6.7,6.7c-0.1,0.1-0.3,0.1-0.5,0l0,0
		L12,10.2c-0.1-0.1-0.1-0.3,0-0.5l0,0l0.7-0.7c0.1-0.1,0.1-0.3,0-0.5l-1.2-1.1c-0.1-0.1-0.3-0.1-0.5,0l0,0L9.3,9
		c-0.6,0.6-0.6,1.4,0,1.9l8.6,8.6c0.2,0.2,0.6,0.5,1,0.5c0.3,0,0.7-0.1,0.9-0.5l8.6-8.6C29.1,10.5,29.1,9.5,28.5,9
		C28.6,9.1,28.5,9.1,28.5,9z"/>
	<path class="st1" d="M0.4,10.9l8.6,8.6c0.2,0.2,0.6,0.5,1,0.5c0.3,0,0.7-0.1,0.9-0.5l1.7-1.7c0.1-0.1,0.1-0.3,0-0.5l-1.3-1.1
		c-0.1-0.1-0.3-0.1-0.5,0l0,0l-0.7,0.7c-0.1,0.1-0.3,0.1-0.5,0l0,0l-6.7-6.7C3,10.1,3,9.9,3.2,9.8l0,0l6.7-6.7C10,3,10.2,3,10.3,3.1
		l0,0L17,9.8c0.1,0.1,0.1,0.3,0,0.5l0,0l-0.7,0.7c-0.1,0.1-0.1,0.3,0,0.5l0,0l1.1,1.2c0.1,0.1,0.3,0.1,0.5,0l1.6-1.7
		c0.6-0.6,0.6-1.4,0-1.9l0,0L11,0.3C10.8,0.1,10.3,0,10,0c-0.3,0-0.7,0.1-1,0.3L0.4,9C-0.1,9.5-0.1,10.5,0.4,10.9z"/>
</g>
<g>
	<path class="st0" d="M47,9.9c0-4.4,3.1-7.4,6.9-7.4s6.4,2.3,6.6,5.9l-1.9,0.1c-0.1-2.6-1.8-4.3-4.7-4.3c-2.8,0-5,2.3-5,5.8
		s2,5.7,5.1,5.7c2.7,0,4.4-1.7,4.7-4.1h-4.3v-1.6h6.1v7h-1.7v-2.5c-0.7,1.8-2.6,2.8-4.9,2.8C50,17.4,47,14.4,47,9.9z"/>
	<path class="st0" d="M65,2.9v14.2h-1.8V2.9H65z"/>
	<path class="st0" d="M74.2,7.2h1.9v9.9h-1.9v-1.7c-0.5,1.1-1.7,2-3.2,2c-2.6,0-3.5-1.7-3.5-4V7.2h1.9v5.9c0,1.7,0.7,2.7,2.3,2.7
		c1.6,0,2.6-1.1,2.6-3V7.2H74.2z"/>
	<path class="st0" d="M87.7,13.8c-0.5,2.3-2.2,3.6-4.7,3.6c-3,0-5.1-1.9-5.1-5.1s2.2-5.3,5-5.3c3.2,0,4.8,2.3,4.8,4.9v0.8h-7.8
		C80,14.6,81.3,16,83,16s2.6-0.8,3.1-2.3L87.7,13.8z M85.9,11.4C85.8,9.8,85,8.4,83,8.4s-2.8,1.4-3.1,3.1H85.9z"/>
	<path class="st0" d="M99.4,11.8h2.5v1.6h-2.5v3.7h-1.9v-3.8H90v-1.8l7-8.6h2.4V11.8z M91.7,11.8h5.8V4.6L91.7,11.8z"/>
	<path class="st0" d="M112.9,15.4v1.7h-10.5V16l4-3.4c2.3-1.9,3.9-3.4,3.9-5.5c0-1.7-0.9-2.8-2.8-2.8c-1.9,0-3,1.2-3,3.3
		c0,0.5,0,0.9,0.1,1.3l-1.9-0.1c-0.1-0.5-0.1-0.9-0.1-1.4c0-3,1.9-4.8,5-4.8c3.3,0,4.9,1.9,4.9,4.3s-2.2,4.5-4.2,6.2l-2.7,2.3
		C105.5,15.4,112.9,15.4,112.9,15.4z"/>
</g>
</svg>
