<svg xmlns="http://www.w3.org/2000/svg" xmlns:xlink="http://www.w3.org/1999/xlink" x="0px" y="0px" width="200" height="200" viewBox="0 0 200 200">
	<style type="text/css">
		.logo-primary-color {fill:#007BE5}
		.logo-dark-color {fill:#FFFFFF;}
	</style>
	<path class="logo-primary-color" d="M115.199 15.1623L101.588 1.55129C100.731 0.694539 99.3393 0.697094 98.4794 1.557L84.8798 15.1565C84.0199 16.0165 84.0174 17.4081 84.8741 18.2648L98.4851 31.8758C99.3418 32.7325 100.733 32.73 101.593 31.8701L115.193 18.2705C116.053 17.4106 116.055 16.019 115.199 15.1623Z" />
	<path class="logo-primary-color" d="M115.148 181.735L101.537 168.124C100.68 167.268 99.2882 167.27 98.4283 168.13L84.8287 181.73C83.9688 182.59 83.9663 183.981 84.823 184.838L98.434 198.449C99.2908 199.306 100.682 199.303 101.542 198.443L115.142 184.844C116.002 183.984 116.004 182.592 115.148 181.735Z" />
	<path class="logo-dark-color" d="M181.982 99.3654C181.444 87.3791 175.088 75.0511 162.768 62.7314L139.297 39.26C135.602 35.5657 131.994 33.356 127.933 33.5434C123.932 33.7223 120.007 36.2303 115.64 40.598C97.385 58.7855 79.4567 76.6483 61.302 94.9357C57.1875 99.0501 58.0564 102.015 63.4087 107.367L71.036 114.994C71.983 115.941 73.5272 115.916 74.4911 114.952L126.254 63.1891C127.013 62.4299 127.747 62.157 128.352 62.1314C128.967 62.1144 129.572 62.3447 130.101 62.8737L146.364 79.1359C152.941 85.7138 156.457 91.7029 157.472 97.1714C157.6 97.8625 157.694 98.5535 157.745 99.236C158.164 105.029 155.741 110.557 150.512 115.94C150.367 116.085 150.247 116.238 150.102 116.383L109.671 156.814C108.707 157.778 108.69 159.331 109.629 160.27L122.955 173.596C123.902 174.543 125.446 174.518 126.41 173.554L166.842 133.122C177.198 122.766 182.521 111.386 181.974 99.3569L181.982 99.3654Z" />
	<path class="logo-dark-color" d="M18.018 100.613C18.5562 112.599 24.0948 124.11 36.4146 136.429L60.7038 160.719C64.398 164.413 68.0068 166.623 72.0676 166.435C76.0688 166.256 79.993 163.748 84.3607 159.381C102.615 141.193 120.544 123.33 138.698 105.043C142.813 100.928 141.944 97.9639 136.592 92.6116L128.964 84.9843C128.017 84.0373 126.473 84.0628 125.509 85.0268L73.7465 136.789C72.9873 137.549 72.2537 137.822 71.6479 137.847C71.0337 137.864 70.428 137.634 69.899 137.105L52.819 120.025C46.2411 113.447 43.5437 108.276 42.5282 102.807C42.4002 102.116 42.3063 101.425 42.2551 100.743C41.8367 94.9498 44.2592 89.4218 49.4885 84.0389C49.6335 83.8939 49.753 83.7403 49.898 83.5953L90.3292 43.1641C91.2932 42.2002 91.3101 40.6475 90.3716 39.709L77.0452 26.3825C76.0981 25.4355 74.554 25.461 73.59 26.425L33.1588 66.8562C22.8026 77.2124 17.4798 88.5927 18.0265 100.622L18.018 100.613Z" />
</svg>
