<?xml version="1.0" encoding="utf-8"?>
<!-- Generator: Adobe Illustrator 26.1.0, SVG Export Plug-In . SVG Version: 6.00 Build 0)  -->
<svg version="1.1" id="Layer_1" xmlns="http://www.w3.org/2000/svg" xmlns:xlink="http://www.w3.org/1999/xlink" x="0px" y="0px"
	 width="120px" height="20px" viewBox="0 0 120 20" style="enable-background:new 0 0 120 20;" xml:space="preserve">
<style type="text/css">
	.st0{fill:#FFFFFF;}
	.st1{fill:#1C89EA;}
</style>
<g>
	<path class="st0" d="M28.4,8.9l-8.6-8.6C19.6,0.1,19.3,0,18.9,0c-0.3,0-0.7,0.1-1,0.3L16.2,2c-0.1,0.1-0.1,0.3,0,0.5l0,0l1.1,1.2
		c0.1,0.1,0.3,0.1,0.5,0l0.7-0.7c0.1-0.1,0.3-0.1,0.5,0l0,0l6.7,6.7c0.1,0.1,0.1,0.3,0,0.5l0,0l-6.7,6.7c-0.1,0.1-0.3,0.1-0.5,0l0,0
		l-6.7-6.7c-0.1-0.1-0.1-0.3,0-0.5l0,0l0.7-0.7c0.1-0.1,0.1-0.3,0-0.5l-1.2-1.1c-0.1-0.1-0.3-0.1-0.5,0l0,0L9.3,8.9
		c-0.6,0.6-0.6,1.4,0,1.9l8.6,8.6c0.2,0.2,0.6,0.5,1,0.5c0.3,0,0.7-0.1,0.9-0.5l8.6-8.6C29,10.4,29,9.5,28.4,8.9
		C28.5,9.1,28.4,9.1,28.4,8.9z"/>
	<path class="st1" d="M0.4,10.9l8.6,8.7c0.2,0.2,0.6,0.5,1,0.5c0.3,0,0.7-0.1,0.9-0.5l1.7-1.7c0.1-0.1,0.1-0.3,0-0.5l-1.2-1.1
		c-0.1-0.1-0.3-0.1-0.5,0l0,0l-0.8,0.6c-0.1,0.1-0.3,0.1-0.5,0l0,0l-6.7-6.7c-0.1-0.1-0.1-0.3,0-0.5l0,0l6.7-6.7
		c0.1-0.1,0.3-0.1,0.5,0l0,0L17,9.7c0.1,0.1,0.1,0.3,0,0.5l0,0l-0.7,0.7c-0.1,0.1-0.1,0.3,0,0.5l0,0l1.1,1.2c0.1,0.1,0.3,0.1,0.5,0
		l1.6-1.7c0.6-0.6,0.6-1.4,0-1.9l0,0L11,0.3C10.8,0.1,10.3,0,10,0C9.6,0,9.3,0.1,9.1,0.3L0.4,8.9C-0.1,9.5-0.1,10.4,0.4,10.9z"/>
</g>
<g>
	<path class="st0" d="M44,10c0-3.9,2.7-6.5,6.1-6.5c3.4,0,5.6,2,5.8,5.1l-1.6,0.1c-0.2-2.3-1.6-3.8-4.1-3.8s-4.4,2-4.4,5.1
		s1.8,5.1,4.5,5.1c2.3,0,3.9-1.5,4.1-3.6h-3.9v-1.4H56v6.2h-1.5V14c-0.5,1.6-2.3,2.5-4.3,2.5C46.6,16.5,44,13.9,44,10z"/>
	<path class="st0" d="M59.8,3.7v12.5h-1.6V3.7H59.8z"/>
	<path class="st0" d="M67.9,7.6h1.6v8.7h-1.6v-1.5c-0.4,1-1.5,1.8-2.8,1.8c-2.2,0-3.1-1.5-3.1-3.5V7.6h1.6v5.2c0,1.5,0.6,2.4,2,2.4
		c1.4,0,2.3-1,2.3-2.7V7.6z"/>
	<path class="st0" d="M79.9,13.3c-0.4,2-1.9,3.2-4,3.2c-2.6,0-4.5-1.7-4.5-4.5s1.9-4.7,4.4-4.7c2.7,0,4.2,2,4.2,4.3v0.7H73
		c0.1,1.7,1.3,2.9,2.8,2.9s2.3-0.7,2.7-2.1L79.9,13.3z M78.1,11.3c-0.1-1.4-0.9-2.7-2.5-2.7s-2.5,1.3-2.7,2.7H78.1z"/>
	<path class="st0" d="M90.1,11.5h2.1V13h-2.1v3.3h-1.7V13h-6.6v-1.6l6.2-7.6H90L90.1,11.5L90.1,11.5z M83.3,11.5h5.1V5.3L83.3,11.5z
		"/>
	<path class="st0" d="M102,14.8v1.5h-9.2v-0.9l3.5-3c2-1.7,3.4-3,3.4-4.8c0-1.5-0.9-2.5-2.5-2.5s-2.7,1.1-2.7,2.9
		c0,0.3,0,0.8,0.2,1.1L93.1,9c-0.1-0.3-0.2-0.8-0.2-1.2c0-2.6,1.7-4.2,4.4-4.2c2.9,0,4.3,1.7,4.3,3.9s-1.9,4-3.8,5.5l-2.4,2
		L102,14.8L102,14.8z"/>
</g>
</svg>
